<?xml version="1.0" encoding="utf-8"?>
<!-- Generator: Adobe Illustrator 19.0.0, SVG Export Plug-In . SVG Version: 6.00 Build 0)  -->
<svg version="1.1" xmlns="http://www.w3.org/2000/svg" xmlns:xlink="http://www.w3.org/1999/xlink" x="0px" y="0px"
	 viewBox="0 0 500 500" style="enable-background:new 0 0 500 500;" xml:space="preserve">
<style type="text/css">
	.st0{fill:url(#Background_1_);}
	.st1{fill:#FFFFFF;}
</style>
<g id="Layer_1">
	
		<linearGradient id="Background_1_" gradientUnits="userSpaceOnUse" x1="0" y1="250" x2="500" y2="250" gradientTransform="matrix(-1 0 0 1 500 0)">
		<stop  offset="0" style="stop-color:#EF456D"/>
		<stop  offset="0.3081" style="stop-color:#EF485F"/>
		<stop  offset="0.9873" style="stop-color:#F04E35"/>
		<stop  offset="1" style="stop-color:#F04E34"/>
	</linearGradient>
	<rect id="Background" class="st0" width="500" height="500"/>
	<g id="Layer_2">
		<path id="XMLID_1_" class="st1" d="M167.9,308.9c-6.6-9.3-21.5-33-22.3-66.4c-1.1-46.7,26.3-77.9,32.6-84.7
			c12.4,8.1,34.2,24.9,49.8,53.8c8.5,15.8,12.7,30.6,14.9,41.8c12.4-3.8,39.5-10.3,71.5-1.7c17.7,4.7,31.2,12.6,40.1,18.9
			c-4.7,12.7-15.4,35.4-38.9,51.5c-1.5,1-7.4,5-16.6,9.2c-12.6,5.7-37.9,14.5-75,10.9c-4.3,11.2-9.4,23.1-15.4,35.5
			c-6.9,14-13.2,24.9-16,29.8c-18.8,31.3-46.3,58.4-59.2,70.4c-25.9,21.7-54.4,43.5-85.8,64.7c-8.8,6-17.6,11.7-26.3,17.2
			c-44.4,23.5-96,47.4-154.4,69.3c-51.6,19.3-100.1,33.7-144.2,44.6c-45.8-95.8-91.5-191.7-137.3-287.5
			c172.3,9.8,356.6-5.8,544.1-64.4C142.3,317.5,155.2,313.3,167.9,308.9z"/>
	</g>
</g>
<g id="Layer_2_1_">
	<polygon class="st1" points="178.2,157.9 145.6,242.6 167.9,308.9 224,342.1 257.7,342.1 354.4,270.6 242.8,253.4 	"/>
</g>
</svg>
